<svg xmlns="http://www.w3.org/2000/svg" viewBox="0 0 800 400" fill="none">
	<defs>
		<linearGradient id="bg" x1="0" y1="0" x2="1" y2="1">
			<stop offset="0" stop-color="#EAF2FF"/>
			<stop offset="1" stop-color="#F5F9FF"/>
		</linearGradient>
		<linearGradient id="p" x1="0" y1="0" x2="1" y2="1">
			<stop offset="0" stop-color="#0D47A1"/>
			<stop offset="1" stop-color="#0B3D91"/>
		</linearGradient>
	</defs>
	<rect width="800" height="400" rx="24" fill="url(#bg)"/>
	<circle cx="640" cy="80" r="60" fill="#E0ECFF"/>
	<circle cx="720" cy="160" r="24" fill="#E0ECFF"/>
	<rect x="120" y="120" width="320" height="200" rx="16" fill="#ffffff" stroke="#CFE0FF"/>
	<rect x="140" y="140" width="120" height="16" rx="8" fill="#E0ECFF"/>
	<rect x="140" y="168" width="220" height="12" rx="6" fill="#EDF4FF"/>
	<rect x="140" y="188" width="180" height="12" rx="6" fill="#EDF4FF"/>
	<rect x="140" y="216" width="260" height="12" rx="6" fill="#EDF4FF"/>
	<rect x="140" y="260" width="90" height="32" rx="16" fill="url(#p)"/>
	<rect x="248" y="260" width="110" height="32" rx="16" fill="#E6EEFF"/>
	<path d="M560 220l84 28-84 28-84-28 84-28z" fill="#E6EEFF"/>
	<path d="M560 220l84 28-84 28-84-28 84-28zm0 18l48 16-48 16-48-16 48-16z" fill="#0D47A1" fill-opacity="0.12"/>
</svg>
